{"title":"Angra - Aurora Consurgens (2006)[Eac Flac][Rock City]","uid":4675238,"size":404165973,"categoryP":"audio","categoryS":"flac","magnet":"?xt=urn:btih:0748a776524f083b8fd221d0f56dd1e739de785f&amp;dn=Angra+-+Aurora+Consurgens+%282006%29%5BEac+Flac%5D%5BRock+City%5D&amp;tr=udp%3A%2F%2Ftracker.openbittorrent.com%3A80&amp;tr=udp%3A%2F%2Fopen.demonii.com%3A1337&amp;tr=udp%3A%2F%2Ftracker.coppersurfer.tk%3A6969&amp;tr=udp%3A%2F%2Fexodus.desync.com%3A6969","seeders":1,"leechers":0,"uploader":"Maste75","files":9,"time":1232881606,"description":"Exact Audio Copy V0.99 prebeta 4 from 23. January 2008\n\nEAC extraction logfile from 25. January 2009, 10:29\n\nAngra / Aurora Consurgens\n\nUsed drive  : HL-DT-STDVDRAM GSA-H42L   Adapter: 1  ID: 0\n\nRead mode               : Secure\nUtilize accurate stream : Yes\nDefeat audio cache      : Yes\nMake use of C2 pointers : No\n\nRead offset correction                      : 667\nOverread into Lead-In and Lead-Out          : No\nFill up missing offset samples with silence : Yes\nDelete leading and trailing silent blocks   : No\nNull samples used in CRC calculations       : Yes\nUsed interface                              : Installed external ASPI interface\n\nUsed output format              : User Defined Encoder\nSelected bitrate                : 1024 kBit/s\nQuality                         : High\nAdd ID3 tag                     : No\nCommand line compressor         : C:ProgrammiExact Audio CopyFLACFLAC.EXE\nAdditional command line options :  -8 -V -T &quot;ARTIST=%a&quot; -T &quot;TITLE=%t&quot; -T &quot;ALBUM=%g&quot; -T &quot;DATE=%y&quot; -T &quot;TRACKNUMBER=%n&quot; -T &quot;GENRE=%m&quot; -T &quot;COMMENT=%e&quot; %s -o %d \n\n\nTOC of the extracted CD\n\n     Track |   Start  |  Length  | Start sector | End sector \n    ---------------------------------------------------------\n        1  |  0:00.00 |  4:30.45 |         0    |    20294   \n        2  |  4:30.45 |  5:27.66 |     20295    |    44885   \n        3  |  9:58.36 |  5:38.17 |     44886    |    70252   \n        4  | 15:36.53 |  3:29.66 |     70253    |    85993   \n        5  | 19:06.44 |  4:21.50 |     85994    |   105618   \n        6  | 23:28.19 |  6:02.03 |    105619    |   132771   \n        7  | 29:30.22 |  7:09.15 |    132772    |   164961   \n        8  | 36:39.37 |  6:32.56 |    164962    |   194417   \n        9  | 43:12.18 |  4:25.46 |    194418    |   214338   \n       10  | 47:37.64 |  3:09.67 |    214339    |   228580   \n\n\nRange status and errors\n\nSelected range\n\n     Filename C:Documents and SettingsMaste75DocumentiDownloadsAngra - Aurora Consurgens (2006)[Eac Flac][Rock City]Angra - Aurora Consurgens.wav\n\n     Peak level 100.0 %\n     Range quality 100.0 %\n     Test CRC 26007100\n     Copy CRC 26007100\n     Copy OK\n\nNo errors occurred\n\n \nAccurateRip summary\n \nTrack  1  accurately ripped (confidence 6)  [4C5E2756]\nTrack  2  accurately ripped (confidence 6)  [5BB42821]\nTrack  3  accurately ripped (confidence 6)  [4F88D7AB]\nTrack  4  accurately ripped (confidence 6)  [C68D006F]\nTrack  5  accurately ripped (confidence 6)  [244A32C1]\nTrack  6  accurately ripped (confidence 6)  [FF496C1A]\nTrack  7  accurately ripped (confidence 6)  [BF8C6D3F]\nTrack  8  accurately ripped (confidence 6)  [21F4AF27]\nTrack  9  accurately ripped (confidence 6)  [9C9D701F]\nTrack 10  accurately ripped (confidence 5)  [4F6A8314]\n \nAll tracks accurately ripped\n\nEnd of status report\n","torrent":{"xt":"urn:btih:0748a776524f083b8fd221d0f56dd1e739de785f","amp;dn":"Angra+-+Aurora+Consurgens+%282006%29%5BEac+Flac%5D%5BRock+City%5D","amp;tr":["udp%3A%2F%2Ftracker.openbittorrent.com%3A80","udp%3A%2F%2Fopen.demonii.com%3A1337","udp%3A%2F%2Ftracker.coppersurfer.tk%3A6969","udp%3A%2F%2Fexodus.desync.com%3A6969"],"infoHash":"0748a776524f083b8fd221d0f56dd1e739de785f","infoHashBuffer":{"type":"Buffer","data":[7,72,167,118,82,79,8,59,143,210,33,208,245,109,209,231,57,222,120,95]},"announce":[],"urlList":[]}}